<svg width="51" height="31" viewBox="0 0 51 31" fill="none" xmlns="http://www.w3.org/2000/svg">
<path d="M6.728 2.912H2.248V5.568H6.6V7.68H2.248V12H0.0400001V0.799999H6.728V2.912ZM18.2409 10.544C17.1102 11.664 15.7342 12.224 14.1129 12.224C12.4915 12.224 11.1155 11.664 9.98487 10.544C8.86487 9.41333 8.30487 8.032 8.30487 6.4C8.30487 4.768 8.86487 3.392 9.98487 2.272C11.1155 1.14133 12.4915 0.575999 14.1129 0.575999C15.7342 0.575999 17.1102 1.14133 18.2409 2.272C19.3715 3.392 19.9369 4.768 19.9369 6.4C19.9369 8.032 19.3715 9.41333 18.2409 10.544ZM11.5369 9.04C12.2302 9.72267 13.0889 10.064 14.1129 10.064C15.1369 10.064 15.9955 9.72267 16.6889 9.04C17.3822 8.34667 17.7289 7.46667 17.7289 6.4C17.7289 5.33333 17.3822 4.45333 16.6889 3.76C15.9955 3.06667 15.1369 2.72 14.1129 2.72C13.0889 2.72 12.2302 3.06667 11.5369 3.76C10.8435 4.45333 10.4969 5.33333 10.4969 6.4C10.4969 7.46667 10.8435 8.34667 11.5369 9.04ZM31.3927 10.544C30.2621 11.664 28.8861 12.224 27.2647 12.224C25.6434 12.224 24.2674 11.664 23.1367 10.544C22.0167 9.41333 21.4567 8.032 21.4567 6.4C21.4567 4.768 22.0167 3.392 23.1367 2.272C24.2674 1.14133 25.6434 0.575999 27.2647 0.575999C28.8861 0.575999 30.2621 1.14133 31.3927 2.272C32.5234 3.392 33.0887 4.768 33.0887 6.4C33.0887 8.032 32.5234 9.41333 31.3927 10.544ZM24.6887 9.04C25.3821 9.72267 26.2407 10.064 27.2647 10.064C28.2887 10.064 29.1474 9.72267 29.8407 9.04C30.5341 8.34667 30.8807 7.46667 30.8807 6.4C30.8807 5.33333 30.5341 4.45333 29.8407 3.76C29.1474 3.06667 28.2887 2.72 27.2647 2.72C26.2407 2.72 25.3821 3.06667 24.6887 3.76C23.9954 4.45333 23.6487 5.33333 23.6487 6.4C23.6487 7.46667 23.9954 8.34667 24.6887 9.04ZM39.5686 0.799999C41.1046 0.799999 42.3846 1.33867 43.4086 2.416C44.4433 3.49333 44.9606 4.82133 44.9606 6.4C44.9606 7.97867 44.4433 9.30667 43.4086 10.384C42.3846 11.4613 41.1046 12 39.5686 12H35.1206V0.799999H39.5686ZM39.5686 9.888C40.5393 9.888 41.3286 9.568 41.9366 8.928C42.5446 8.27733 42.8486 7.43467 42.8486 6.4C42.8486 5.36533 42.5446 4.528 41.9366 3.888C41.3286 3.23733 40.5393 2.912 39.5686 2.912H37.3286V9.888H39.5686ZM11 19.8V31H8.808V23.736L5.656 28.936H5.4L2.248 23.752V31H0.0400001V19.8H2.312L5.528 25.096L8.728 19.8H11ZM20.7669 31L20.0949 28.984H15.6309L14.9589 31H12.5749L16.4949 19.8H19.2309L23.1669 31H20.7669ZM16.3349 26.92H19.4069L17.8709 22.344L16.3349 26.92ZM31.2144 19.8H33.4224V31H31.7424L26.9424 24.152V31H24.7344V19.8H26.4144L31.2144 26.632V19.8ZM35.98 19.8H38.188V31H35.98V19.8ZM47.9412 31L47.2692 28.984H42.8052L42.1332 31H39.7492L43.6692 19.8H46.4052L50.3412 31H47.9412ZM43.5092 26.92H46.5812L45.0452 22.344L43.5092 26.92Z" fill="#3C3C3C"/>
</svg>
